<svg xmlns="http://www.w3.org/2000/svg" xmlns:xlink="http://www.w3.org/1999/xlink" viewBox="0,0,255.99429,255.99429" width="64px" height="64px"><defs><linearGradient x1="32" y1="19.393" x2="32" y2="45" gradientUnits="userSpaceOnUse" id="color-1"><stop offset="0.036" stop-color="#6dc7ff"></stop><stop offset="0.96" stop-color="#e6abff"></stop></linearGradient><linearGradient x1="32.001" y1="8.025" x2="32.001" y2="54.696" gradientUnits="userSpaceOnUse" id="color-2"><stop offset="0" stop-color="#1a6dff"></stop><stop offset="1" stop-color="#22ff75"></stop></linearGradient><linearGradient x1="32.001" y1="8.025" x2="32.001" y2="54.696" gradientUnits="userSpaceOnUse" id="color-3"><stop offset="0" stop-color="#1a6dff"></stop><stop offset="1" stop-color="#22ff75"></stop></linearGradient><linearGradient x1="19.697" y1="8.007" x2="19.697" y2="54.678" gradientUnits="userSpaceOnUse" id="color-4"><stop offset="0" stop-color="#1a6dff"></stop><stop offset="1" stop-color="#22ff75"></stop></linearGradient><linearGradient x1="44.303" y1="8.025" x2="44.303" y2="54.696" gradientUnits="userSpaceOnUse" id="color-5"><stop offset="0" stop-color="#1a6dff"></stop><stop offset="1" stop-color="#22ff75"></stop></linearGradient><linearGradient x1="32" y1="8.025" x2="32" y2="54.696" gradientUnits="userSpaceOnUse" id="color-6"><stop offset="0" stop-color="#1a6dff"></stop><stop offset="1" stop-color="#22ff75"></stop></linearGradient></defs><g fill="none" fill-rule="nonzero" stroke="none" stroke-width="1" stroke-linecap="butt" stroke-linejoin="miter" stroke-miterlimit="10" stroke-dasharray="" stroke-dashoffset="0" font-family="none" font-weight="none" font-size="none" text-anchor="none" style="mix-blend-mode: normal"><g transform="scale(4,4)"><path d="M39.158,26.798l-7.158,-7.405l-7.158,7.405c-4.071,4.211 -10.82,4.211 -14.891,0l14.5,15c1.978,2.046 4.702,3.202 7.549,3.202c2.847,0 5.571,-1.156 7.549,-3.202l14.5,-15c-4.07,4.211 -10.82,4.211 -14.891,0zM25.5,36c-1.381,0 -2.5,-1.119 -2.5,-2.5c0,-1.381 1.119,-2.5 2.5,-2.5c1.381,0 2.5,1.119 2.5,2.5c0,1.381 -1.119,2.5 -2.5,2.5zM40.5,35c-0.541,0 -3.458,0 -4,0c-0.828,0 -1.5,-0.672 -1.5,-1.5c0,-0.828 0.672,-1.5 1.5,-1.5c0.542,0 3.459,0 4,0c0.828,0 1.5,0.672 1.5,1.5c0,0.828 -0.672,1.5 -1.5,1.5z" fill="url(#color-1)"></path><path d="M17.496,56c-2.998,0 -5.828,-1.143 -7.988,-3.231c-2.209,-2.135 -3.454,-5.002 -3.506,-8.074c-0.052,-3.071 1.095,-5.979 3.23,-8.188l5.041,-5.214l1.438,1.39l-5.04,5.214c-1.763,1.825 -2.711,4.227 -2.668,6.764c0.043,2.537 1.071,4.906 2.896,6.669c1.825,1.764 4.222,2.701 6.765,2.669c2.537,-0.043 4.906,-1.071 6.668,-2.896l7.668,-7.935l7.67,7.935c1.806,1.868 4.232,2.897 6.831,2.897c2.477,0 4.821,-0.948 6.602,-2.669c1.824,-1.764 2.853,-4.132 2.896,-6.669c0.043,-2.537 -0.905,-4.939 -2.668,-6.764l-5.084,-5.26l1.438,-1.39l5.084,5.26c2.135,2.208 3.282,5.116 3.23,8.188c-0.052,3.071 -1.297,5.938 -3.506,8.074c-2.156,2.082 -4.994,3.23 -7.992,3.23c-3.146,0 -6.083,-1.246 -8.269,-3.507l-6.232,-6.447l-6.232,6.446c-2.134,2.209 -5.001,3.454 -8.073,3.506c-0.067,0.002 -0.133,0.002 -0.199,0.002z" fill="url(#color-2)"></path><path d="M32,46c-3.1,0 -6.113,-1.278 -8.268,-3.507l-14.5,-15l1.438,-1.39l14.5,15c1.78,1.841 4.269,2.897 6.83,2.897c2.561,0 5.05,-1.056 6.831,-2.897l14.5,-15l1.438,1.39l-14.5,15c-2.156,2.229 -5.169,3.507 -8.269,3.507z" fill="url(#color-3)"></path><path d="M17.396,30.956c-3.106,0 -6.006,-1.23 -8.165,-3.463c-4.408,-4.559 -4.284,-11.854 0.275,-16.261c4.56,-4.406 11.854,-4.283 16.261,0.276l7.623,7.885l-7.83,8.1c-2.158,2.233 -5.058,3.463 -8.164,3.463zM17.499,10.004c-2.379,0 -4.76,0.885 -6.602,2.666c-1.824,1.763 -2.853,4.132 -2.896,6.669c-0.043,2.537 0.905,4.939 2.668,6.764c1.778,1.84 4.167,2.853 6.727,2.853c2.559,0 4.948,-1.013 6.727,-2.853l6.486,-6.71l-6.279,-6.496c-1.86,-1.925 -4.345,-2.893 -6.831,-2.893z" fill="url(#color-4)"></path><path d="M46.604,30.956c-3.106,0 -6.005,-1.23 -8.164,-3.463l-7.83,-8.1l7.622,-7.885c2.135,-2.209 5.002,-3.454 8.074,-3.506c3.079,-0.034 5.979,1.095 8.188,3.23c4.56,4.407 4.683,11.702 0.276,16.261c-2.161,2.233 -5.06,3.463 -8.166,3.463zM33.391,19.393l6.487,6.71c1.778,1.84 4.167,2.853 6.726,2.853c2.559,0 4.948,-1.013 6.727,-2.853c1.763,-1.825 2.711,-4.227 2.668,-6.764c-0.043,-2.537 -1.071,-4.906 -2.896,-6.669c-1.825,-1.764 -4.229,-2.707 -6.764,-2.669c-2.538,0.043 -4.906,1.072 -6.669,2.896z" fill="url(#color-5)"></path><rect x="31" y="19.277" width="2" height="25.33" fill="url(#color-6)"></rect></g></g></svg>